<?xml version="1.0" encoding="utf-8"?>
<!-- Generator: Adobe Illustrator 27.1.1, SVG Export Plug-In . SVG Version: 6.00 Build 0)  -->
<svg version="1.1"
	 id="svg22" xmlns:inkscape="http://www.inkscape.org/namespaces/inkscape" xmlns:sodipodi="http://sodipodi.sourceforge.net/DTD/sodipodi-0.dtd" xmlns:rdf="http://www.w3.org/1999/02/22-rdf-syntax-ns#" xmlns:cc="http://creativecommons.org/ns#" xmlns:svg="http://www.w3.org/2000/svg" xmlns:dc="http://purl.org/dc/elements/1.1/"
	 xmlns="http://www.w3.org/2000/svg" xmlns:xlink="http://www.w3.org/1999/xlink" x="0px" y="0px" viewBox="0 0 254.1 240"
	 style="enable-background:new 0 0 254.1 240;" xml:space="preserve">
<style type="text/css">
	.st0{fill:#FFFFFF;}
</style>
<sodipodi:namedview  bordercolor="#666666" borderopacity="1" gridtolerance="10" guidetolerance="10" id="namedview24" inkscape:current-layer="g20" inkscape:cx="379.41832" inkscape:cy="359.09975" inkscape:pageopacity="0" inkscape:pageshadow="2" inkscape:window-height="837" inkscape:window-maximized="1" inkscape:window-width="1600" inkscape:window-x="-8" inkscape:window-y="-8" inkscape:zoom="0.27243067" objecttolerance="10" pagecolor="#ffffff" showgrid="false">
	</sodipodi:namedview>
<g id="g20" transform="matrix(1.7245357,0,0,1.7245357,-413.72399,-252.74028)">
	
		<path id="path4" inkscape:connector-curvature="0" inkscape:export-filename="C:\Users\suitedoalex\sites\bitcoin-logo-5.png" inkscape:export-xdpi="79.817902" inkscape:export-ydpi="79.817902" class="st0" d="
		M346.7,207.5c1.4-9.3-5.7-14.2-15.3-17.6l3.1-12.5l-7.6-1.9l-3,12.2c-2-0.5-4.1-1-6.1-1.4l3.1-12.3l-7.6-1.9l-3.1,12.5
		c-1.7-0.4-3.3-0.8-4.9-1.1l0,0l-10.5-2.6l-2,8.2c0,0,5.7,1.3,5.5,1.4c3.1,0.8,3.7,2.8,3.6,4.4l-3.6,14.3c0.2,0.1,0.5,0.1,0.8,0.3
		c-0.3-0.1-0.5-0.1-0.8-0.2l-5,20c-0.4,0.9-1.3,2.3-3.5,1.8c0.1,0.1-5.5-1.4-5.5-1.4l-3.8,8.7l9.9,2.5c1.8,0.5,3.7,0.9,5.4,1.4
		l-3.2,12.7l7.6,1.9l3.1-12.6c2.1,0.6,4.1,1.1,6.1,1.6l-3.1,12.5l7.6,1.9l3.2-12.7c13,2.5,22.8,1.5,26.9-10.3c3.3-9.5-0.2-15-7-18.5
		C341.9,217.6,345.7,214.3,346.7,207.5L346.7,207.5z M329.3,232c-2.4,9.5-18.3,4.4-23.5,3.1l4.2-16.8
		C315.1,219.5,331.7,222.1,329.3,232z M331.6,207.4c-2.2,8.6-15.4,4.2-19.8,3.2l3.8-15.2C320,196.4,333.9,198.4,331.6,207.4z"/>
</g>
</svg>
